<svg width="444" height="145" viewBox="0 0 444 145" fill="none" xmlns="http://www.w3.org/2000/svg">
<path d="M385.932 142.4V113.2H347.932C342.466 113.2 337.466 111.933 332.932 109.4C328.532 106.867 324.999 103.533 322.332 99.3999C319.799 95.1332 318.532 90.4666 318.532 85.3999C318.532 82.7332 318.866 80.0666 319.532 77.3999C320.199 74.7332 321.066 72.2666 322.132 69.9999L357.132 2.3999H393.332L352.932 79.1999C352.532 79.8666 352.266 80.3999 352.132 80.7999C351.999 81.1999 351.932 81.7332 351.932 82.3999C351.932 83.1999 352.199 83.8666 352.732 84.3999C353.399 84.9332 354.199 85.1999 355.132 85.1999H385.932V41.1999H418.332V85.1999H436.132V113.2H418.332V142.4H385.932Z" fill="white"/>
<path d="M232.268 144.8C221.601 144.8 212.134 142.6 203.868 138.2C195.601 133.667 189.134 127.6 184.468 120C179.801 112.267 177.468 103.6 177.468 94V50.6C177.468 41 179.801 32.4 184.468 24.8C189.134 17.0667 195.601 11 203.868 6.6C212.134 2.2 221.601 0 232.268 0C242.668 0 251.934 2.2 260.068 6.6C268.334 11 274.801 17.0667 279.468 24.8C284.134 32.4 286.468 41 286.468 50.6V94C286.468 103.6 284.068 112.267 279.268 120C274.601 127.6 268.134 133.667 259.868 138.2C251.734 142.6 242.534 144.8 232.268 144.8ZM232.268 116C236.268 116 239.868 115.133 243.068 113.4C246.401 111.533 249.068 109 251.068 105.8C253.068 102.6 254.068 99 254.068 95V49.6C254.068 45.6 253.068 42.0667 251.068 39C249.068 35.8 246.401 33.2667 243.068 31.4C239.868 29.5333 236.268 28.6 232.268 28.6C228.134 28.6 224.334 29.5333 220.868 31.4C217.534 33.1333 214.868 35.6 212.868 38.8C210.868 42 209.868 45.6 209.868 49.6V95C209.868 99 210.868 102.6 212.868 105.8C214.868 109 217.534 111.533 220.868 113.4C224.334 115.133 228.134 116 232.268 116Z" fill="white"/>
<path d="M91.8082 142.4V113.2H53.8082C48.3415 113.2 43.3415 111.933 38.8082 109.4C34.4082 106.867 30.8749 103.533 28.2082 99.3999C25.6749 95.1332 24.4082 90.4666 24.4082 85.3999C24.4082 82.7332 24.7415 80.0666 25.4082 77.3999C26.0749 74.7332 26.9415 72.2666 28.0082 69.9999L63.0082 2.3999H99.2082L58.8082 79.1999C58.4082 79.8666 58.1415 80.3999 58.0082 80.7999C57.8749 81.1999 57.8082 81.7332 57.8082 82.3999C57.8082 83.1999 58.0749 83.8666 58.6082 84.3999C59.2749 84.9332 60.0749 85.1999 61.0082 85.1999H91.8082V41.1999H124.208V85.1999H142.008V113.2H124.208V142.4H91.8082Z" fill="white"/>
<rect x="11" y="49.3999" width="42" height="12" rx="6" fill="#1E222C"/>
<rect x="402" y="75.3999" width="42" height="12" rx="6" fill="#1E222C"/>
<rect x="319" y="20.3999" width="42" height="12" rx="6" fill="#1E222C"/>
<rect x="304" y="94.3999" width="42" height="12" rx="6" fill="#1E222C"/>
<rect x="160" y="12.3999" width="46" height="12" rx="6" fill="#1E222C"/>
<rect x="154" y="52.3999" width="44" height="12" rx="6" fill="#1E222C"/>
<rect x="265" y="106.4" width="42" height="12" rx="6" fill="#1E222C"/>
<rect x="18" y="26.3999" width="42" height="12" rx="6" fill="white"/>
<rect x="334" y="8.3999" width="42" height="12" rx="6" fill="white"/>
<rect x="413" y="63.3999" width="23" height="12" rx="6" fill="white"/>
<rect x="367" y="130.4" width="42" height="12" rx="6" fill="white"/>
<rect x="256" y="118.4" width="48" height="12" rx="6" fill="white"/>
<rect x="178" y="0.399902" width="55" height="12" rx="6" fill="white"/>
<rect x="100" y="130.4" width="42" height="12" rx="6" fill="white"/>
<circle cx="6" cy="32.3999" r="6" fill="white"/>
<circle cx="322" cy="14.3999" r="6" fill="white"/>
<circle cx="166" cy="6.3999" r="6" fill="white"/>
<circle cx="154" cy="136.4" r="6" fill="white"/>
</svg>
