<svg width="16" height="16" viewBox="0 0 16 16" fill="none" xmlns="http://www.w3.org/2000/svg">
<path d="M7.87636 5.45446L10.1818 7.75264C10.1818 7.71627 10.1818 7.67264 10.1818 7.63628C10.1818 7.05762 9.95195 6.50267 9.54278 6.0935C9.13361 5.68433 8.57865 5.45446 8 5.45446C7.95636 5.45446 7.92 5.45446 7.87636 5.45446ZM4.74909 6.03628L5.87636 7.16355C5.84 7.31628 5.81818 7.469 5.81818 7.63628C5.81818 8.21493 6.04805 8.76988 6.45722 9.17905C6.86639 9.58822 7.42135 9.81809 8 9.81809C8.16 9.81809 8.32 9.79628 8.47273 9.75991L9.6 10.8872C9.11273 11.1272 8.57455 11.2726 8 11.2726C7.03558 11.2726 6.11065 10.8895 5.4287 10.2076C4.74675 9.52562 4.36364 8.6007 4.36364 7.63628C4.36364 7.06173 4.50909 6.52355 4.74909 6.03628ZM0.727273 2.01446L2.38545 3.67264L2.71273 3.99991C1.51273 4.94537 0.567273 6.18173 0 7.63628C1.25818 10.829 4.36364 13.0908 8 13.0908C9.12727 13.0908 10.2036 12.8726 11.1855 12.4799L11.4982 12.7854L13.6218 14.909L14.5455 13.9854L1.65091 1.09082M8 3.99991C8.96442 3.99991 9.88935 4.38303 10.5713 5.06498C11.2532 5.74693 11.6364 6.67185 11.6364 7.63628C11.6364 8.10173 11.5418 8.55264 11.3745 8.95991L13.5055 11.0908C14.5964 10.1817 15.4691 8.989 16 7.63628C14.7418 4.44355 11.6364 2.18173 8 2.18173C6.98182 2.18173 6.00727 2.36355 5.09091 2.69082L6.66909 4.25446C7.08364 4.09446 7.52727 3.99991 8 3.99991Z" fill="#373740"/>
</svg>
