<svg width="16" height="16" viewBox="0 0 16 16" fill="none" xmlns="http://www.w3.org/2000/svg">
<path d="M8 5.43484C7.42135 5.43484 6.86639 5.66471 6.45722 6.07388C6.04805 6.48305 5.81818 7.038 5.81818 7.61665C5.81818 8.19531 6.04805 8.75026 6.45722 9.15943C6.86639 9.5686 7.42135 9.79847 8 9.79847C8.57865 9.79847 9.13361 9.5686 9.54278 9.15943C9.95195 8.75026 10.1818 8.19531 10.1818 7.61665C10.1818 7.038 9.95195 6.48305 9.54278 6.07388C9.13361 5.66471 8.57865 5.43484 8 5.43484ZM8 11.253C7.03558 11.253 6.11065 10.8699 5.4287 10.188C4.74675 9.506 4.36364 8.58108 4.36364 7.61665C4.36364 6.65223 4.74675 5.72731 5.4287 5.04536C6.11065 4.36341 7.03558 3.98029 8 3.98029C8.96442 3.98029 9.88935 4.36341 10.5713 5.04536C11.2532 5.72731 11.6364 6.65223 11.6364 7.61665C11.6364 8.58108 11.2532 9.506 10.5713 10.188C9.88935 10.8699 8.96442 11.253 8 11.253ZM8 2.16211C4.36364 2.16211 1.25818 4.42393 0 7.61665C1.25818 10.8094 4.36364 13.0712 8 13.0712C11.6364 13.0712 14.7418 10.8094 16 7.61665C14.7418 4.42393 11.6364 2.16211 8 2.16211Z" fill="#373740"/>
</svg>
