<svg width="20" height="20" viewBox="0 0 20 20" fill="none" xmlns="http://www.w3.org/2000/svg">
<g clip-path="url(#clip0_7223_7412)">
<path fill-rule="evenodd" clip-rule="evenodd" d="M10.6461 2.29223C11.5891 1.38144 12.8521 0.877469 14.1631 0.888861C15.4741 0.900253 16.7282 1.4261 17.6552 2.35314C18.5823 3.28018 19.1081 4.53424 19.1195 5.84523C19.1309 7.15621 18.6269 8.41922 17.7161 9.36223L17.706 9.37256L15.2061 11.8725C14.6992 12.3795 14.0892 12.7717 13.4174 13.0222C12.7457 13.2728 12.0279 13.376 11.3127 13.3248C10.5976 13.2736 9.90182 13.0692 9.27263 12.7254C8.64344 12.3816 8.09553 11.9066 7.66608 11.3325C7.39041 10.9639 7.46569 10.4417 7.83423 10.166C8.20278 9.89033 8.72502 9.96561 9.00069 10.3342C9.28699 10.7169 9.65226 11.0336 10.0717 11.2628C10.4912 11.492 10.955 11.6282 11.4318 11.6624C11.9085 11.6965 12.3871 11.6277 12.8349 11.4607C13.2828 11.2936 13.6894 11.0322 14.0274 10.6942L14.0275 10.6941L16.5221 8.19945C17.1263 7.57131 17.4605 6.73142 17.4529 5.85971C17.4453 4.98572 17.0947 4.14968 16.4767 3.53165C15.8587 2.91362 15.0226 2.56306 14.1486 2.55546C13.2766 2.54789 12.4363 2.88239 11.8081 3.48709L10.3793 4.90761C10.0529 5.2321 9.52523 5.23056 9.20075 4.90417C8.87626 4.57779 8.8778 4.05015 9.20418 3.72567L10.6375 2.30067L10.6461 2.29223Z" fill="#6D6AFE"/>
<path fill-rule="evenodd" clip-rule="evenodd" d="M6.58263 6.97744C7.25439 6.72685 7.97218 6.62367 8.68732 6.67488C9.40247 6.7261 10.0982 6.93052 10.7274 7.27428C11.3566 7.61803 11.9045 8.09309 12.334 8.66722C12.6096 9.03576 12.5344 9.558 12.1658 9.83367C11.7973 10.1093 11.275 10.0341 10.9994 9.66551C10.7131 9.28276 10.3478 8.96606 9.92833 8.73689C9.50887 8.50772 9.04503 8.37144 8.56827 8.33729C8.0915 8.30315 7.61298 8.37194 7.16514 8.53899C6.7173 8.70605 6.31062 8.96747 5.9727 9.30551L3.478 11.8002C2.8738 12.4284 2.53959 13.2683 2.54716 14.14C2.55476 15.014 2.90532 15.85 3.52335 16.468C4.14138 17.086 4.97742 17.4366 5.85141 17.4442C6.72311 17.4518 7.563 17.1176 8.19114 16.5134L9.61075 15.0938C9.93618 14.7683 10.4638 14.7683 10.7893 15.0938C11.1147 15.4192 11.1147 15.9469 10.7893 16.2723L9.36426 17.6973L9.35393 17.7074C8.41092 18.6182 7.14791 19.1222 5.83692 19.1108C4.52594 19.0994 3.27188 18.5736 2.34484 17.6465C1.4178 16.7195 0.891952 15.4654 0.88056 14.1544C0.869168 12.8435 1.37314 11.5805 2.28393 10.6374L2.29408 10.6271L4.79397 8.12722C4.79401 8.12718 4.79394 8.12725 4.79397 8.12722C5.30084 7.6202 5.91092 7.228 6.58263 6.97744Z" fill="#6D6AFE"/>
</g>
<defs>
<clipPath id="clip0_7223_7412">
<rect width="20" height="20" fill="white"/>
</clipPath>
</defs>
</svg>
