<svg width="18" height="18" viewBox="0 0 18 18" fill="none" xmlns="http://www.w3.org/2000/svg">
<path fill-rule="evenodd" clip-rule="evenodd" d="M12.3785 1.9083C12.8194 1.46742 13.5331 1.46742 13.974 1.9083L16.6716 4.60595C17.1125 5.04683 17.1125 5.7605 16.6716 6.20139L7.67572 15.1973C7.5931 15.2799 7.48592 15.3335 7.37025 15.35L3.2526 15.9382C3.08434 15.9623 2.91458 15.9057 2.7944 15.7855C2.67421 15.6653 2.61763 15.4956 2.64166 15.3273L3.2299 11.2097C3.24642 11.094 3.30002 10.9868 3.38263 10.9042L12.3785 1.9083ZM13.2103 2.67197C13.1912 2.65286 13.1613 2.65286 13.1422 2.67197L4.27359 11.5406L3.81263 14.7673L7.03933 14.3063L15.9079 5.43771C15.927 5.41859 15.927 5.38874 15.9079 5.36962L13.2103 2.67197Z" fill="#9FA6B2"/>
<path fill-rule="evenodd" clip-rule="evenodd" d="M15.3229 3.25728C15.5338 3.46817 15.5338 3.81008 15.3229 4.02096L8.26412 11.0798C8.05324 11.2907 7.71133 11.2907 7.50045 11.0798C7.28956 10.8689 7.28956 10.527 7.50045 10.3161L14.5593 3.25728C14.7702 3.0464 15.1121 3.0464 15.3229 3.25728Z" fill="#9FA6B2"/>
<path fill-rule="evenodd" clip-rule="evenodd" d="M3.38277 10.9043C3.59365 10.6934 3.93556 10.6934 4.14645 10.9043L7.67586 14.4337C7.88674 14.6446 7.88674 14.9865 7.67586 15.1973C7.46498 15.4082 7.12307 15.4082 6.91218 15.1973L3.38277 11.6679C3.17189 11.457 3.17189 11.1151 3.38277 10.9043Z" fill="#9FA6B2"/>
</svg>
