<svg width="63" height="63" viewBox="0 0 63 63" fill="none" xmlns="http://www.w3.org/2000/svg">
<path d="M13.125 55.125C11.6812 55.125 10.4453 54.6109 9.41719 53.5828C8.38906 52.5547 7.875 51.3187 7.875 49.875V13.125C7.875 11.6812 8.38906 10.4453 9.41719 9.41719C10.4453 8.38906 11.6812 7.875 13.125 7.875H49.875C51.3187 7.875 52.5547 8.38906 53.5828 9.41719C54.6109 10.4453 55.125 11.6812 55.125 13.125V49.875C55.125 51.3187 54.6109 52.5547 53.5828 53.5828C52.5547 54.6109 51.3187 55.125 49.875 55.125H13.125ZM13.125 49.875H49.875V13.125H13.125V49.875ZM15.75 44.625H47.25L37.4062 31.5L29.5312 42L23.625 34.125L15.75 44.625Z" fill="white"/>
</svg>
