<?xml version="1.0" standalone="no"?>
<!DOCTYPE svg PUBLIC "-//W3C//DTD SVG 20010904//EN"
 "http://www.w3.org/TR/2001/REC-SVG-20010904/DTD/svg10.dtd">
<svg version="1.0" xmlns="http://www.w3.org/2000/svg"
 width="700.000000pt" height="700.000000pt" viewBox="0 0 700.000000 700.000000"
 preserveAspectRatio="xMidYMid meet">
<metadata>
Created by potrace 1.14, written by Peter Selinger 2001-2017
</metadata>
<g transform="translate(0.000000,700.000000) scale(0.100000,-0.100000)"
fill="#000000" stroke="none">
<path d="M1355 6993 c-16 -2 -77 -13 -134 -24 -589 -114 -1063 -580 -1186
-1165 -9 -44 -19 -90 -23 -104 -3 -14 -7 -988 -8 -2165 -3 -1830 -1 -2153 11
-2230 32 -199 75 -329 160 -493 226 -433 649 -729 1145 -800 63 -10 4269 -9
4355 0 418 44 838 307 1078 675 123 189 209 424 235 643 10 77 9 4282 -1 4355
-28 226 -131 485 -270 681 -69 98 -211 245 -302 315 -182 139 -398 240 -606
283 -41 8 -87 18 -104 23 -30 7 -4292 14 -4350 6z"/>
</g>
</svg>
