<svg width="120" height="120" viewBox="0 0 120 120" fill="none" xmlns="http://www.w3.org/2000/svg">
<rect width="120" height="120" rx="26" fill="#6D6AFE"/>
<path d="M34.5515 73.0288V37.0737H22V84.04H58.0786V73.0288H34.5515Z" fill="white"/>
<path d="M86.1698 85C93.7682 85 103.111 80.6742 103.111 65.618C103.111 50.5618 93.7682 46.236 86.1698 46.236C81.9484 46.236 78.1773 47.4719 75.1379 49.5506V35H62.5864V83.8764H75.1379V81.6854C78.1773 83.8202 81.9484 85 86.1698 85ZM82.849 74.0449C78.515 74.0449 75.1379 71.8539 75.1379 65.618V65.1685C75.3068 59.3258 78.6276 57.191 82.849 57.191C87.6895 57.191 90.56 59.7191 90.56 65.618C90.56 71.573 87.6895 74.0449 82.849 74.0449Z" fill="white"/>
</svg>
