<svg xmlns="http://www.w3.org/2000/svg" width="16" height="16" viewBox="0 0 16 16" fill="none">
  <path fill-rule="evenodd" clip-rule="evenodd" d="M8.52151 1.96603C8.52151 1.67148 8.28272 1.4327 7.98817 1.4327C7.69362 1.4327 7.45484 1.67148 7.45484 1.96603L7.45484 7.46668L1.95425 7.46668C1.6597 7.46668 1.42092 7.70546 1.42092 8.00001C1.42092 8.29456 1.6597 8.53335 1.95425 8.53335L7.45484 8.53335L7.45484 14.034C7.45484 14.3285 7.69362 14.5673 7.98817 14.5673C8.28273 14.5673 8.52151 14.3285 8.52151 14.034L8.52151 8.53335L14.0222 8.53335C14.3168 8.53335 14.5555 8.29457 14.5555 8.00002C14.5555 7.70546 14.3168 7.46668 14.0222 7.46668L8.52151 7.46668L8.52151 1.96603Z" fill="#E7EFFB"/>
</svg>
