<svg width="18" height="18" viewBox="0 0 18 18" fill="none" xmlns="http://www.w3.org/2000/svg">
<path fill-rule="evenodd" clip-rule="evenodd" d="M5.70711 4.29289C5.31658 3.90237 4.68342 3.90237 4.29289 4.29289C3.90237 4.68342 3.90237 5.31658 4.29289 5.70711L7.58579 9L4.2929 12.2929C3.90237 12.6834 3.90237 13.3166 4.29289 13.7071C4.68342 14.0976 5.31658 14.0976 5.70711 13.7071L9 10.4142L12.2929 13.7071C12.6834 14.0976 13.3166 14.0976 13.7071 13.7071C14.0976 13.3166 14.0976 12.6834 13.7071 12.2929L10.4142 9L13.7071 5.70711C14.0976 5.31658 14.0976 4.68342 13.7071 4.29289C13.3166 3.90237 12.6834 3.90237 12.2929 4.29289L9 7.58579L5.70711 4.29289Z" fill="#9FA6B2"/>
</svg>
