<svg width="18" height="18" viewBox="0 0 18 18" fill="none" xmlns="http://www.w3.org/2000/svg">
<path fill-rule="evenodd" clip-rule="evenodd" d="M10.2639 2.3001H7.73607C7.43305 2.3001 7.15604 2.4713 7.02053 2.74233L6.44174 3.8999H11.5583L10.9795 2.74233C10.844 2.4713 10.5669 2.3001 10.2639 2.3001ZM12.8999 3.8999L12.0528 2.20567C11.714 1.5281 11.0215 1.1001 10.2639 1.1001H7.73607C6.97852 1.1001 6.286 1.5281 5.94721 2.20567L5.1001 3.8999H4.2H3H2.1C1.76863 3.8999 1.5 4.16853 1.5 4.4999C1.5 4.83127 1.76863 5.0999 2.1 5.0999L3 5.0999V14.8999C3 16.0045 3.89543 16.8999 5 16.8999H13C14.1046 16.8999 15 16.0045 15 14.8999V5.0999L15.9 5.0999C16.2314 5.0999 16.5 4.83127 16.5 4.4999C16.5 4.16853 16.2314 3.8999 15.9 3.8999H15H13.8H12.8999ZM13.8 5.0999H13.4999L13.5 5.1001H12.1584H5.84164H4.5L4.5001 5.0999H4.2V14.8999C4.2 15.3417 4.55817 15.6999 5 15.6999H13C13.4418 15.6999 13.8 15.3417 13.8 14.8999V5.0999Z" fill="#9FA6B2"/>
<rect x="9.6001" y="6.8999" width="7" height="1.2" rx="0.6" transform="rotate(90 9.6001 6.8999)" fill="#9FA6B2"/>
<rect x="12.1997" y="6.8999" width="7" height="1.2" rx="0.6" transform="rotate(90 12.1997 6.8999)" fill="#9FA6B2"/>
<rect x="7.2002" y="6.8999" width="7" height="1.2" rx="0.6" transform="rotate(90 7.2002 6.8999)" fill="#9FA6B2"/>
</svg>
