<svg width="16" height="16" viewBox="0 0 16 16" fill="none" xmlns="http://www.w3.org/2000/svg">
<g clip-path="url(#clip0_7226_7576)">
<path fill-rule="evenodd" clip-rule="evenodd" d="M2.49512 7.58466C2.49512 4.68937 4.84221 2.34229 7.73749 2.34229C10.6328 2.34229 12.9799 4.68937 12.9799 7.58466C12.9799 10.4799 10.6328 12.827 7.73749 12.827C4.84221 12.827 2.49512 10.4799 2.49512 7.58466ZM7.73749 0.842285C4.01378 0.842285 0.995117 3.86095 0.995117 7.58466C0.995117 11.3084 4.01378 14.327 7.73749 14.327C9.24965 14.327 10.6455 13.8292 11.7702 12.9886L13.725 14.9382C14.0183 15.2307 14.4931 15.2301 14.7856 14.9369C15.0782 14.6436 15.0775 14.1687 14.7843 13.8762L12.8655 11.9624C13.8721 10.7845 14.4799 9.25554 14.4799 7.58466C14.4799 3.86095 11.4612 0.842285 7.73749 0.842285Z" fill="#666666"/>
</g>
<defs>
<clipPath id="clip0_7226_7576">
<rect width="16" height="16" fill="white"/>
</clipPath>
</defs>
</svg>
