<svg width="18" height="18" viewBox="0 0 18 18" fill="none" xmlns="http://www.w3.org/2000/svg">
<g clip-path="url(#clip0_7223_7441)">
<path fill-rule="evenodd" clip-rule="evenodd" d="M7.3951 10.545C7.1315 10.2813 7.1315 9.85396 7.3951 9.59036L13.8296 3.02012H10.368C9.99525 3.02012 9.69304 2.71792 9.69304 2.34512C9.69304 1.97233 9.99525 1.67012 10.368 1.67012L15.4592 1.67012C15.832 1.67012 16.1342 1.97233 16.1342 2.34512L16.1342 7.43629C16.1342 7.80909 15.832 8.11129 15.4592 8.11129C15.0864 8.11129 14.7842 7.80908 14.7842 7.43629L14.7842 3.97472L8.3497 10.545C8.0861 10.8086 7.65871 10.8086 7.3951 10.545Z" fill="#9FA6B2"/>
<path fill-rule="evenodd" clip-rule="evenodd" d="M4.4999 4.2748C3.87858 4.2748 3.3749 4.77848 3.3749 5.3998V13.4998C3.3749 14.1211 3.87858 14.6248 4.4999 14.6248H12.5999C13.2212 14.6248 13.7249 14.1211 13.7249 13.4998V10.3498C13.7249 9.97701 14.0271 9.6748 14.3999 9.6748C14.7727 9.6748 15.0749 9.97701 15.0749 10.3498V13.4998C15.0749 14.8667 13.9668 15.9748 12.5999 15.9748H4.4999C3.133 15.9748 2.0249 14.8667 2.0249 13.4998V5.3998C2.0249 4.0329 3.133 2.9248 4.4999 2.9248H7.6499C8.02269 2.9248 8.3249 3.22701 8.3249 3.5998C8.3249 3.9726 8.02269 4.2748 7.6499 4.2748H4.4999Z" fill="#9FA6B2"/>
</g>
<defs>
<clipPath id="clip0_7223_7441">
<rect width="18" height="18" fill="white"/>
</clipPath>
</defs>
</svg>
